<svg width="14" height="13" viewBox="0 0 14 13" fill="none" xmlns="http://www.w3.org/2000/svg">
<path d="M13.5306 5.03025L10.5306 8.03025C10.3897 8.17114 10.1986 8.2503 9.99938 8.2503C9.80012 8.2503 9.60902 8.17114 9.46813 8.03025C9.32723 7.88935 9.24807 7.69825 9.24807 7.499C9.24807 7.29974 9.32723 7.10864 9.46813 6.96775L11.1875 5.24962H9.3125C8.1483 5.24924 7.017 5.63584 6.09651 6.34861C5.17602 7.06138 4.51855 8.05989 4.2275 9.18712C4.20288 9.28249 4.15971 9.37208 4.10046 9.45077C4.04122 9.52946 3.96705 9.59571 3.8822 9.64574C3.79735 9.69577 3.70348 9.72859 3.60595 9.74234C3.50841 9.75609 3.40912 9.75049 3.31375 9.72587C3.21838 9.70125 3.12879 9.65808 3.0501 9.59884C2.97141 9.53959 2.90516 9.46542 2.85513 9.38058C2.8051 9.29573 2.77228 9.20185 2.75853 9.10432C2.74478 9.00678 2.75038 8.90749 2.775 8.81212C3.14861 7.36257 3.99371 6.07844 5.17726 5.16193C6.36081 4.24541 7.81557 3.74857 9.3125 3.74962H11.1875L9.46937 2.02962C9.32848 1.88873 9.24932 1.69763 9.24932 1.49837C9.24932 1.29911 9.32848 1.10802 9.46937 0.967121C9.61027 0.826225 9.80137 0.74707 10.0006 0.74707C10.1999 0.74707 10.391 0.826225 10.5319 0.967121L13.5319 3.96712C13.6018 4.03689 13.6573 4.11979 13.6951 4.21106C13.7329 4.30232 13.7523 4.40016 13.7522 4.49894C13.752 4.59773 13.7324 4.69552 13.6944 4.78669C13.6564 4.87787 13.6007 4.96064 13.5306 5.03025ZM11 10.7496H1.75V3.49962C1.75 3.30071 1.67098 3.10994 1.53033 2.96929C1.38968 2.82864 1.19891 2.74962 1 2.74962C0.801088 2.74962 0.610322 2.82864 0.46967 2.96929C0.329018 3.10994 0.25 3.30071 0.25 3.49962V10.9996C0.25 11.3311 0.381696 11.6491 0.616117 11.8835C0.850537 12.1179 1.16848 12.2496 1.5 12.2496H11C11.1989 12.2496 11.3897 12.1706 11.5303 12.03C11.671 11.8893 11.75 11.6985 11.75 11.4996C11.75 11.3007 11.671 11.1099 11.5303 10.9693C11.3897 10.8286 11.1989 10.7496 11 10.7496Z" fill="#F9FAFB"/>
</svg>
