<svg width="11" height="8" viewBox="0 0 11 8" fill="none" xmlns="http://www.w3.org/2000/svg">
<path d="M10.3994 1.77348L4.39941 7.77348C4.34715 7.82592 4.28506 7.86752 4.21669 7.89591C4.14831 7.9243 4.07501 7.93892 4.00098 7.93892C3.92694 7.93892 3.85364 7.9243 3.78527 7.89591C3.71689 7.86752 3.6548 7.82592 3.60254 7.77348L0.977538 5.14848C0.925215 5.09615 0.883709 5.03404 0.855392 4.96567C0.827075 4.89731 0.8125 4.82404 0.8125 4.75004C0.8125 4.67604 0.827075 4.60277 0.855392 4.53441C0.883709 4.46604 0.925215 4.40392 0.977538 4.3516C1.02986 4.29928 1.09198 4.25777 1.16034 4.22945C1.22871 4.20114 1.30198 4.18656 1.37598 4.18656C1.44997 4.18656 1.52324 4.20114 1.59161 4.22945C1.65997 4.25777 1.72209 4.29928 1.77441 4.3516L4.00144 6.57863L9.60348 0.977538C9.70915 0.871866 9.85247 0.8125 10.0019 0.8125C10.1514 0.8125 10.2947 0.871866 10.4004 0.977538C10.506 1.08321 10.5654 1.22653 10.5654 1.37598C10.5654 1.52542 10.506 1.66874 10.4004 1.77441L10.3994 1.77348Z" fill="#036B26"/>
</svg>
