<svg width="33" height="32" viewBox="0 0 33 32" fill="none" xmlns="http://www.w3.org/2000/svg">
<rect x="0.5" width="32" height="32" rx="16" fill="#FBEAE9"/>
<path d="M20.9998 13.5003V20.0003C20.9998 20.1329 20.9471 20.2601 20.8533 20.3538C20.7596 20.4476 20.6324 20.5003 20.4998 20.5003H13.9998C13.8672 20.5003 13.74 20.4476 13.6462 20.3538C13.5525 20.2601 13.4998 20.1329 13.4998 20.0003C13.4998 19.8677 13.5525 19.7405 13.6462 19.6467C13.74 19.553 13.8672 19.5003 13.9998 19.5003H19.2929L12.146 12.354C12.0522 12.2602 11.9995 12.133 11.9995 12.0003C11.9995 11.8676 12.0522 11.7403 12.146 11.6465C12.2399 11.5527 12.3671 11.5 12.4998 11.5C12.6325 11.5 12.7597 11.5527 12.8535 11.6465L19.9998 18.7934V13.5003C19.9998 13.3677 20.0525 13.2405 20.1462 13.1467C20.24 13.053 20.3672 13.0003 20.4998 13.0003C20.6324 13.0003 20.7596 13.053 20.8533 13.1467C20.9471 13.2405 20.9998 13.3677 20.9998 13.5003Z" fill="#D42620"/>
</svg>
