<svg width="33" height="32" viewBox="0 0 33 32" fill="none" xmlns="http://www.w3.org/2000/svg">
<rect x="0.5" width="32" height="32" rx="16" fill="#E7F6EC"/>
<path d="M20.9998 12V18.5C20.9998 18.6326 20.9471 18.7598 20.8533 18.8536C20.7596 18.9473 20.6324 19 20.4998 19C20.3672 19 20.24 18.9473 20.1462 18.8536C20.0525 18.7598 19.9998 18.6326 19.9998 18.5V13.2069L12.8535 20.3538C12.7597 20.4476 12.6325 20.5003 12.4998 20.5003C12.3671 20.5003 12.2399 20.4476 12.146 20.3538C12.0522 20.2599 11.9995 20.1327 11.9995 20C11.9995 19.8673 12.0522 19.7401 12.146 19.6462L19.2929 12.5H13.9998C13.8672 12.5 13.74 12.4473 13.6462 12.3536C13.5525 12.2598 13.4998 12.1326 13.4998 12C13.4998 11.8674 13.5525 11.7402 13.6462 11.6464C13.74 11.5527 13.8672 11.5 13.9998 11.5H20.4998C20.6324 11.5 20.7596 11.5527 20.8533 11.6464C20.9471 11.7402 20.9998 11.8674 20.9998 12Z" fill="#0F973D"/>
</svg>
