<svg width="17" height="16" viewBox="0 0 17 16" fill="none" xmlns="http://www.w3.org/2000/svg">
<path d="M8.5 1.5C7.21442 1.5 5.95772 1.88122 4.8888 2.59545C3.81988 3.30968 2.98676 4.32484 2.49479 5.51256C2.00282 6.70028 1.87409 8.00721 2.1249 9.26809C2.3757 10.529 2.99477 11.6872 3.90381 12.5962C4.81285 13.5052 5.97104 14.1243 7.23192 14.3751C8.49279 14.6259 9.79973 14.4972 10.9874 14.0052C12.1752 13.5132 13.1903 12.6801 13.9046 11.6112C14.6188 10.5423 15 9.28558 15 8C14.9982 6.27665 14.3128 4.62441 13.0942 3.40582C11.8756 2.18722 10.2234 1.50182 8.5 1.5ZM10.8538 9.64625C10.9002 9.6927 10.9371 9.74786 10.9622 9.80855C10.9873 9.86925 11.0003 9.9343 11.0003 10C11.0003 10.0657 10.9873 10.1308 10.9622 10.1914C10.9371 10.2521 10.9002 10.3073 10.8538 10.3538C10.8073 10.4002 10.7521 10.4371 10.6915 10.4622C10.6308 10.4873 10.5657 10.5003 10.5 10.5003C10.4343 10.5003 10.3693 10.4873 10.3086 10.4622C10.2479 10.4371 10.1927 10.4002 10.1463 10.3538L8.5 8.70687L6.85375 10.3538C6.8073 10.4002 6.75215 10.4371 6.69145 10.4622C6.63075 10.4873 6.5657 10.5003 6.5 10.5003C6.43431 10.5003 6.36925 10.4873 6.30855 10.4622C6.24786 10.4371 6.19271 10.4002 6.14625 10.3538C6.0998 10.3073 6.06295 10.2521 6.03781 10.1914C6.01266 10.1308 5.99972 10.0657 5.99972 10C5.99972 9.9343 6.01266 9.86925 6.03781 9.80855C6.06295 9.74786 6.0998 9.6927 6.14625 9.64625L7.79313 8L6.14625 6.35375C6.05243 6.25993 5.99972 6.13268 5.99972 6C5.99972 5.86732 6.05243 5.74007 6.14625 5.64625C6.24007 5.55243 6.36732 5.49972 6.5 5.49972C6.63268 5.49972 6.75993 5.55243 6.85375 5.64625L8.5 7.29313L10.1463 5.64625C10.1927 5.59979 10.2479 5.56294 10.3086 5.5378C10.3693 5.51266 10.4343 5.49972 10.5 5.49972C10.5657 5.49972 10.6308 5.51266 10.6915 5.5378C10.7521 5.56294 10.8073 5.59979 10.8538 5.64625C10.9002 5.6927 10.9371 5.74786 10.9622 5.80855C10.9873 5.86925 11.0003 5.9343 11.0003 6C11.0003 6.0657 10.9873 6.13075 10.9622 6.19145C10.9371 6.25214 10.9002 6.3073 10.8538 6.35375L9.20688 8L10.8538 9.64625Z" fill="#9E0A05"/>
</svg>
