<svg width="8" height="8" viewBox="0 0 8 8" fill="none" xmlns="http://www.w3.org/2000/svg">
<path d="M7.77441 6.97699C7.88009 7.08266 7.93945 7.22599 7.93945 7.37543C7.93945 7.52487 7.88009 7.66819 7.77441 7.77387C7.66874 7.87954 7.52542 7.9389 7.37598 7.93891C7.22653 7.93891 7.08321 7.87954 6.97754 7.77387L4.00144 4.79684L1.02441 7.77293C0.918741 7.8786 0.775419 7.93797 0.625976 7.93797C0.476533 7.93797 0.33321 7.8786 0.227538 7.77293C0.121866 7.66726 0.0625 7.52393 0.0625 7.37449C0.0625 7.22505 0.121866 7.08173 0.227538 6.97605L3.20457 3.99996L0.228476 1.02293C0.122803 0.917256 0.0634375 0.773934 0.0634375 0.624491C0.0634375 0.475048 0.122803 0.331726 0.228476 0.226054C0.334148 0.120382 0.47747 0.0610155 0.626913 0.0610155C0.776356 0.0610155 0.919679 0.120382 1.02535 0.226054L4.00144 3.20309L6.97848 0.225585C7.08415 0.119913 7.22747 0.0605469 7.37691 0.0605469C7.52636 0.0605469 7.66968 0.119913 7.77535 0.225585C7.88102 0.331257 7.94039 0.474579 7.94039 0.624022C7.94039 0.773466 7.88102 0.916788 7.77535 1.02246L4.79832 3.99996L7.77441 6.97699Z" fill="#9E0A05"/>
</svg>
