<svg width="17" height="16" viewBox="0 0 17 16" fill="none" xmlns="http://www.w3.org/2000/svg">
<path d="M13.0003 5.50028V12.0003C13.0003 12.1329 12.9476 12.2601 12.8538 12.3538C12.7601 12.4476 12.6329 12.5003 12.5003 12.5003H6.00028C5.86767 12.5003 5.74049 12.4476 5.64672 12.3538C5.55296 12.2601 5.50028 12.1329 5.50028 12.0003C5.50028 11.8677 5.55296 11.7405 5.64672 11.6467C5.74049 11.553 5.86767 11.5003 6.00028 11.5003H11.2934L4.14653 4.35403C4.05271 4.26021 4 4.13296 4 4.00028C4 3.8676 4.05271 3.74035 4.14653 3.64653C4.24035 3.55271 4.3676 3.5 4.50028 3.5C4.63296 3.5 4.76021 3.55271 4.85403 3.64653L12.0003 10.7934V5.50028C12.0003 5.36767 12.053 5.24049 12.1467 5.14672C12.2405 5.05296 12.3677 5.00028 12.5003 5.00028C12.6329 5.00028 12.7601 5.05296 12.8538 5.14672C12.9476 5.24049 13.0003 5.36767 13.0003 5.50028Z" fill="#D42620"/>
</svg>
