<svg width="20" height="20" viewBox="0 0 20 20" fill="none" xmlns="http://www.w3.org/2000/svg">
<path d="M4.81753 2.31754L2.31754 4.81753C2.25947 4.8756 2.19053 4.92167 2.11466 4.95309C2.03879 4.98452 1.95747 5.00069 1.87535 5.00069C1.79323 5.00069 1.71191 4.98452 1.63604 4.95309C1.56017 4.92167 1.49123 4.8756 1.43316 4.81753C1.31588 4.70026 1.25 4.5412 1.25 4.37535C1.25 4.2095 1.31588 4.05044 1.43316 3.93316L3.93316 1.43316C3.99123 1.37509 4.06017 1.32903 4.13604 1.2976C4.21191 1.26618 4.29323 1.25 4.37535 1.25C4.45747 1.25 4.53879 1.26618 4.61466 1.2976C4.69053 1.32903 4.75947 1.37509 4.81753 1.43316C4.8756 1.49123 4.92167 1.56017 4.95309 1.63604C4.98452 1.71191 5.00069 1.79323 5.00069 1.87535C5.00069 1.95747 4.98452 2.03879 4.95309 2.11466C4.92167 2.19053 4.8756 2.25947 4.81753 2.31754ZM18.5675 3.93316L16.0675 1.43316C15.9503 1.31588 15.7912 1.25 15.6253 1.25C15.4595 1.25 15.3004 1.31588 15.1832 1.43316C15.0659 1.55044 15 1.7095 15 1.87535C15 2.0412 15.0659 2.20026 15.1832 2.31754L17.6832 4.81753C17.7412 4.8756 17.8102 4.92167 17.886 4.95309C17.9619 4.98452 18.0432 5.00069 18.1253 5.00069C18.2075 5.00069 18.2888 4.98452 18.3647 4.95309C18.4405 4.92167 18.5095 4.8756 18.5675 4.81753C18.6256 4.75947 18.6717 4.69053 18.7031 4.61466C18.7345 4.53879 18.7507 4.45747 18.7507 4.37535C18.7507 4.29323 18.7345 4.21191 18.7031 4.13604C18.6717 4.06017 18.6256 3.99123 18.5675 3.93316ZM17.5003 10.0003C17.5003 11.4837 17.0605 12.9338 16.2364 14.1671C15.4123 15.4005 14.2409 16.3618 12.8705 16.9294C11.5 17.4971 9.99203 17.6456 8.53717 17.3562C7.08231 17.0668 5.74594 16.3525 4.69705 15.3036C3.64815 14.2548 2.93385 12.9184 2.64446 11.4635C2.35507 10.0087 2.50359 8.50067 3.07125 7.13022C3.63891 5.75978 4.6002 4.58844 5.83357 3.76433C7.06694 2.94021 8.51699 2.50035 10.0003 2.50035C11.9888 2.50262 13.8951 3.29353 15.3011 4.69956C16.7072 6.10559 17.4981 8.01192 17.5003 10.0003ZM15.0003 10.0003C15.0003 9.83459 14.9345 9.67562 14.8173 9.55841C14.7001 9.4412 14.5411 9.37535 14.3753 9.37535H10.6253V5.62535C10.6253 5.45959 10.5595 5.30062 10.4423 5.18341C10.3251 5.0662 10.1661 5.00035 10.0003 5.00035C9.83459 5.00035 9.67562 5.0662 9.55841 5.18341C9.4412 5.30062 9.37535 5.45959 9.37535 5.62535V10.0003C9.37535 10.1661 9.4412 10.3251 9.55841 10.4423C9.67562 10.5595 9.83459 10.6253 10.0003 10.6253H14.3753C14.5411 10.6253 14.7001 10.5595 14.8173 10.4423C14.9345 10.3251 15.0003 10.1661 15.0003 10.0003Z" fill="#5C6D66"/>
</svg>
