<svg width="20" height="20" viewBox="0 0 20 20" fill="none" xmlns="http://www.w3.org/2000/svg">
<path d="M16.8753 10.1681C16.8784 10.0556 16.8784 9.94305 16.8753 9.83055L18.0409 8.3743C18.102 8.29784 18.1443 8.2081 18.1644 8.11229C18.1845 8.01649 18.1818 7.91731 18.1565 7.82274C17.9651 7.10458 17.6793 6.41497 17.3065 5.77196C17.2577 5.68783 17.1899 5.61627 17.1085 5.56297C17.0271 5.50967 16.9344 5.47609 16.8378 5.46493L14.9847 5.25868C14.9076 5.17743 14.8294 5.0993 14.7503 5.0243L14.5315 3.16649C14.5203 3.06978 14.4866 2.97704 14.4331 2.89566C14.3797 2.81427 14.308 2.7465 14.2237 2.69774C13.5808 2.32528 12.8911 2.03997 12.1729 1.8493C12.0784 1.82404 11.9792 1.82134 11.8834 1.84142C11.7876 1.8615 11.6978 1.90381 11.6214 1.96493L10.169 3.1243C10.0565 3.1243 9.94403 3.1243 9.83153 3.1243L8.37528 1.96102C8.29882 1.8999 8.20907 1.8576 8.11327 1.83752C8.01747 1.81743 7.91829 1.82013 7.82372 1.8454C7.10555 2.03682 6.41595 2.32265 5.77294 2.6954C5.68881 2.74425 5.61725 2.81206 5.56394 2.89344C5.51064 2.97481 5.47707 3.06751 5.46591 3.16415L5.25966 5.0204C5.17841 5.098 5.10028 5.17613 5.02528 5.25477L3.16747 5.46805C3.07076 5.47931 2.97802 5.51299 2.89663 5.56644C2.81525 5.61988 2.74748 5.69159 2.69872 5.77587C2.32633 6.41896 2.04078 7.10855 1.8495 7.82665C1.82434 7.92128 1.82177 8.02049 1.84199 8.1163C1.86221 8.2121 1.90465 8.30182 1.9659 8.37821L3.12528 9.83055C3.12528 9.94305 3.12528 10.0556 3.12528 10.1681L1.962 11.6243C1.90088 11.7008 1.85858 11.7905 1.83849 11.8863C1.81841 11.9821 1.82111 12.0813 1.84637 12.1759C2.0378 12.894 2.32363 13.5836 2.69637 14.2266C2.74522 14.3108 2.81303 14.3823 2.89441 14.4356C2.97579 14.4889 3.06849 14.5225 3.16512 14.5337L5.01825 14.7399C5.09585 14.8212 5.17398 14.8993 5.25262 14.9743L5.46903 16.8321C5.48028 16.9288 5.51397 17.0216 5.56741 17.103C5.62085 17.1843 5.69257 17.2521 5.77684 17.3009C6.41994 17.6733 7.10953 17.9588 7.82762 18.1501C7.92225 18.1752 8.02147 18.1778 8.11727 18.1576C8.21308 18.1374 8.30279 18.0949 8.37919 18.0337L9.83153 16.8743C9.94403 16.8774 10.0565 16.8774 10.169 16.8743L11.6253 18.0399C11.7017 18.101 11.7915 18.1434 11.8873 18.1634C11.9831 18.1835 12.0823 18.1808 12.1768 18.1556C12.8951 17.9645 13.5848 17.6786 14.2276 17.3056C14.3118 17.2567 14.3833 17.1889 14.4366 17.1075C14.4899 17.0261 14.5235 16.9334 14.5347 16.8368L14.7409 14.9837C14.8222 14.9066 14.9003 14.8285 14.9753 14.7493L16.8331 14.5306C16.9298 14.5193 17.0225 14.4856 17.1039 14.4322C17.1853 14.3787 17.2531 14.307 17.3018 14.2227C17.6742 13.5796 17.9598 12.8901 18.1511 12.172C18.1762 12.0773 18.1788 11.9781 18.1586 11.8823C18.1384 11.7865 18.0959 11.6968 18.0347 11.6204L16.8753 10.1681ZM10.0003 13.1243C9.38221 13.1243 8.77803 12.941 8.26412 12.5976C7.75022 12.2543 7.34968 11.7662 7.11316 11.1952C6.87663 10.6242 6.81475 9.99584 6.93533 9.38965C7.0559 8.78346 7.35353 8.22663 7.79057 7.7896C8.22761 7.35256 8.78443 7.05493 9.39062 6.93435C9.99681 6.81377 10.6251 6.87566 11.1962 7.11218C11.7672 7.3487 12.2552 7.74924 12.5986 8.26315C12.942 8.77705 13.1253 9.38124 13.1253 9.9993C13.1253 10.8281 12.796 11.623 12.21 12.209C11.6239 12.7951 10.8291 13.1243 10.0003 13.1243Z" fill="#5C6D66"/>
</svg>
