<svg width="18" height="18" viewBox="0 0 18 18" fill="none" xmlns="http://www.w3.org/2000/svg">
<path d="M8.9993 5.2493C8.25762 5.2493 7.5326 5.46924 6.91592 5.88129C6.29923 6.29335 5.81858 6.87902 5.53476 7.56424C5.25093 8.24946 5.17666 9.00346 5.32136 9.73089C5.46605 10.4583 5.82321 11.1265 6.34765 11.651C6.8721 12.1754 7.54029 12.5326 8.26772 12.6772C8.99514 12.8219 9.74914 12.7477 10.4344 12.4639C11.1196 12.18 11.7053 11.6994 12.1173 11.0827C12.5294 10.466 12.7493 9.74098 12.7493 8.9993C12.7483 8.00506 12.3529 7.05183 11.6498 6.3488C10.9468 5.64576 9.99355 5.25034 8.9993 5.2493ZM8.9993 11.4993C8.50485 11.4993 8.0215 11.3527 7.61038 11.078C7.19926 10.8033 6.87882 10.4128 6.6896 9.95601C6.50039 9.4992 6.45088 8.99653 6.54734 8.51158C6.6438 8.02663 6.88191 7.58117 7.23154 7.23154C7.58117 6.88191 8.02663 6.6438 8.51158 6.54734C8.99653 6.45088 9.4992 6.50039 9.95601 6.6896C10.4128 6.87882 10.8033 7.19926 11.078 7.61038C11.3527 8.0215 11.4993 8.50485 11.4993 8.9993C11.4993 9.66235 11.2359 10.2982 10.7671 10.7671C10.2982 11.2359 9.66235 11.4993 8.9993 11.4993ZM15.8743 9.16805C15.8774 9.05555 15.8774 8.94305 15.8743 8.83055L17.0399 7.3743C17.101 7.29784 17.1434 7.2081 17.1634 7.11229C17.1835 7.01649 17.1808 6.91731 17.1556 6.82274C16.9645 6.10446 16.6786 5.41481 16.3056 4.77196C16.2567 4.68783 16.1889 4.61627 16.1075 4.56297C16.0261 4.50967 15.9334 4.47609 15.8368 4.46493L13.9837 4.25868C13.9066 4.17743 13.8285 4.0993 13.7493 4.0243L13.5306 2.16649C13.5193 2.06978 13.4856 1.97704 13.4322 1.89566C13.3787 1.81427 13.307 1.7465 13.2227 1.69774C12.5796 1.32536 11.8901 1.0398 11.172 0.848522C11.0773 0.823363 10.9781 0.82079 10.8823 0.84101C10.7865 0.861229 10.6968 0.903676 10.6204 0.964928L9.16805 2.1243C9.05555 2.1243 8.94305 2.1243 8.83055 2.1243L7.3743 0.961022C7.29784 0.899904 7.2081 0.857598 7.11229 0.837515C7.01649 0.817432 6.91731 0.820131 6.82274 0.845397C6.10458 1.03682 5.41497 1.32265 4.77196 1.6954C4.68783 1.74425 4.61627 1.81206 4.56297 1.89344C4.50967 1.97481 4.47609 2.06751 4.46493 2.16415L4.25868 4.0204C4.17743 4.098 4.0993 4.17613 4.0243 4.25477L2.16649 4.46805C2.06978 4.47931 1.97704 4.51299 1.89566 4.56644C1.81427 4.61988 1.7465 4.69159 1.69774 4.77587C1.32536 5.41896 1.0398 6.10855 0.848522 6.82665C0.823363 6.92128 0.82079 7.02049 0.84101 7.1163C0.861229 7.2121 0.903676 7.30182 0.964928 7.37821L2.1243 8.83055C2.1243 8.94305 2.1243 9.05555 2.1243 9.16805L0.961022 10.6243C0.899904 10.7008 0.857598 10.7905 0.837515 10.8863C0.817432 10.9821 0.820131 11.0813 0.845397 11.1759C1.03648 11.8941 1.32233 12.5838 1.6954 13.2266C1.74425 13.3108 1.81206 13.3823 1.89344 13.4356C1.97481 13.4889 2.06751 13.5225 2.16415 13.5337L4.01727 13.7399C4.09488 13.8212 4.173 13.8993 4.25165 13.9743L4.46805 15.8321C4.47931 15.9288 4.51299 16.0216 4.56644 16.103C4.61988 16.1843 4.69159 16.2521 4.77587 16.3009C5.41896 16.6733 6.10855 16.9588 6.82665 17.1501C6.92128 17.1752 7.02049 17.1778 7.1163 17.1576C7.2121 17.1374 7.30182 17.0949 7.37821 17.0337L8.83055 15.8743C8.94305 15.8774 9.05555 15.8774 9.16805 15.8743L10.6243 17.0399C10.7008 17.101 10.7905 17.1434 10.8863 17.1634C10.9821 17.1835 11.0813 17.1808 11.1759 17.1556C11.8941 16.9645 12.5838 16.6786 13.2266 16.3056C13.3108 16.2567 13.3823 16.1889 13.4356 16.1075C13.4889 16.0261 13.5225 15.9334 13.5337 15.8368L13.7399 13.9837C13.8212 13.9066 13.8993 13.8285 13.9743 13.7493L15.8321 13.5306C15.9288 13.5193 16.0216 13.4856 16.103 13.4322C16.1843 13.3787 16.2521 13.307 16.3009 13.2227C16.6733 12.5796 16.9588 11.8901 17.1501 11.172C17.1752 11.0773 17.1778 10.9781 17.1576 10.8823C17.1374 10.7865 17.0949 10.6968 17.0337 10.6204L15.8743 9.16805ZM14.6165 8.66024C14.6298 8.88609 14.6298 9.11252 14.6165 9.33837C14.6072 9.49299 14.6556 9.64556 14.7524 9.76649L15.861 11.1516C15.7338 11.5559 15.5709 11.9481 15.3743 12.3235L13.6087 12.5235C13.4549 12.5406 13.313 12.6141 13.2102 12.7298C13.0599 12.8989 12.8997 13.0591 12.7306 13.2095C12.6149 13.3122 12.5414 13.4541 12.5243 13.6079L12.3282 15.372C11.9528 15.5687 11.5606 15.7316 11.1563 15.8587L9.7704 14.7501C9.65949 14.6615 9.52173 14.6133 9.37977 14.6134H9.34227C9.11643 14.6266 8.88999 14.6266 8.66415 14.6134C8.50952 14.6041 8.35695 14.6525 8.23602 14.7493L6.84696 15.8587C6.44269 15.7315 6.05052 15.5686 5.67508 15.372L5.47508 13.6087C5.45802 13.4549 5.38453 13.313 5.26884 13.2102C5.0997 13.0599 4.93953 12.8997 4.78915 12.7306C4.68644 12.6149 4.54447 12.5414 4.39071 12.5243L2.62665 12.3274C2.42992 11.952 2.26704 11.5599 2.13993 11.1556L3.24852 9.76962C3.34532 9.64869 3.39377 9.49611 3.38446 9.34149C3.37118 9.11565 3.37118 8.88921 3.38446 8.66337C3.39377 8.50874 3.34532 8.35617 3.24852 8.23524L2.13993 6.84696C2.26714 6.44269 2.43002 6.05052 2.62665 5.67508L4.38993 5.47508C4.54369 5.45802 4.68566 5.38453 4.78837 5.26884C4.93875 5.0997 5.09892 4.93953 5.26805 4.78915C5.38421 4.68637 5.458 4.54408 5.47508 4.38993L5.67118 2.62665C6.04657 2.42992 6.43875 2.26704 6.84305 2.13993L8.22899 3.24852C8.34992 3.34532 8.50249 3.39377 8.65712 3.38446C8.88296 3.37118 9.1094 3.37118 9.33524 3.38446C9.48987 3.39377 9.64244 3.34532 9.76337 3.24852L11.1516 2.13993C11.5559 2.26714 11.9481 2.43002 12.3235 2.62665L12.5235 4.38993C12.5406 4.54369 12.6141 4.68566 12.7298 4.78837C12.8989 4.93875 13.0591 5.09892 13.2095 5.26805C13.3122 5.38375 13.4541 5.45724 13.6079 5.4743L15.372 5.6704C15.5687 6.04579 15.7316 6.43797 15.8587 6.84227L14.7501 8.22821C14.6524 8.35016 14.6039 8.5043 14.6141 8.66024H14.6165Z" fill="#667185"/>
</svg>
