<svg xmlns="http://www.w3.org/2000/svg" width="26" height="26" viewBox="0 0 26 26" fill="none">
<path d="M0.700002 12.4001C0.752531 12.4395 0.812305 12.4681 0.875912 12.4844C0.939518 12.5007 1.00571 12.5043 1.07071 12.495C1.13571 12.4857 1.19825 12.4637 1.25475 12.4303C1.31125 12.3968 1.36061 12.3526 1.4 12.3001C2.05203 11.4307 2.89752 10.7251 3.86951 10.2391C4.8415 9.75307 5.91329 9.50005 7 9.50005C8.08672 9.50005 9.15851 9.75307 10.1305 10.2391C11.1025 10.7251 11.948 11.4307 12.6 12.3001C12.6455 12.3633 12.7054 12.4148 12.7747 12.4503C12.8441 12.4859 12.9208 12.5044 12.9988 12.5044C13.0767 12.5044 13.1534 12.4859 13.2228 12.4503C13.2921 12.4148 13.352 12.3633 13.3975 12.3001C14.0495 11.4307 14.895 10.7251 15.867 10.2391C16.839 9.75307 17.9108 9.50005 18.9975 9.50005C20.0842 9.50005 21.156 9.75307 22.128 10.2391C23.1 10.7251 23.9455 11.4307 24.5975 12.3001C24.6369 12.3526 24.6863 12.3968 24.7428 12.4303C24.7993 12.4637 24.8618 12.4857 24.9268 12.495C24.9918 12.5043 25.058 12.5007 25.1216 12.4844C25.1852 12.4681 25.245 12.4395 25.2975 12.4001C25.35 12.3607 25.3943 12.3113 25.4277 12.2548C25.4612 12.1983 25.4832 12.1358 25.4925 12.0708C25.5018 12.0058 25.4982 11.9396 25.4819 11.876C25.4656 11.8124 25.4369 11.7526 25.3975 11.7001C24.3834 10.3383 22.9596 9.33726 21.335 8.8438C22.174 8.33376 22.8232 7.56329 23.1836 6.64989C23.5439 5.7365 23.5956 4.73031 23.3307 3.7848C23.0659 2.83929 22.4991 2.00635 21.7167 1.41302C20.9344 0.819692 19.9794 0.498535 18.9975 0.498535C18.0156 0.498535 17.0606 0.819692 16.2783 1.41302C15.4959 2.00635 14.9291 2.83929 14.6643 3.7848C14.3994 4.73031 14.4511 5.7365 14.8115 6.64989C15.1718 7.56329 15.821 8.33376 16.66 8.8438C15.2409 9.27695 13.9719 10.0998 12.9975 11.2188C12.0233 10.0996 10.7543 9.27664 9.335 8.8438C10.174 8.33376 10.8232 7.56329 11.1836 6.64989C11.5439 5.7365 11.5956 4.73031 11.3307 3.7848C11.0659 2.83929 10.4991 2.00635 9.71671 1.41302C8.93435 0.819692 7.9794 0.498535 6.9975 0.498535C6.0156 0.498535 5.06065 0.819692 4.27829 1.41302C3.49593 2.00635 2.92911 2.83929 2.66428 3.7848C2.39944 4.73031 2.45113 5.7365 2.81145 6.64989C3.17178 7.56329 3.82097 8.33376 4.66 8.8438C3.03653 9.33822 1.61384 10.3391 0.600002 11.7001C0.560605 11.7526 0.531941 11.8124 0.515645 11.876C0.499349 11.9396 0.495741 12.0058 0.505027 12.0708C0.514313 12.1358 0.536311 12.1983 0.569765 12.2548C0.603219 12.3113 0.647473 12.3607 0.700002 12.4001ZM15.5 5.00005C15.5 4.30782 15.7053 3.63113 16.0899 3.05556C16.4744 2.47999 17.0211 2.03138 17.6606 1.76648C18.3002 1.50157 19.0039 1.43226 19.6828 1.56731C20.3618 1.70235 20.9854 2.0357 21.4749 2.52518C21.9644 3.01466 22.2977 3.6383 22.4328 4.31724C22.5678 4.99617 22.4985 5.6999 22.2336 6.33945C21.9687 6.97899 21.5201 7.52561 20.9445 7.9102C20.3689 8.29478 19.6922 8.50005 19 8.50005C18.0717 8.50005 17.1815 8.13131 16.5251 7.47493C15.8687 6.81855 15.5 5.92831 15.5 5.00005ZM3.5 5.00005C3.5 4.30782 3.70527 3.63113 4.08986 3.05556C4.47444 2.47999 5.02107 2.03138 5.66061 1.76648C6.30015 1.50157 7.00389 1.43226 7.68282 1.56731C8.36175 1.70235 8.98539 2.0357 9.47488 2.52518C9.96436 3.01466 10.2977 3.6383 10.4328 4.31724C10.5678 4.99617 10.4985 5.6999 10.2336 6.33945C9.96867 6.97899 9.52007 7.52561 8.9445 7.9102C8.36893 8.29478 7.69224 8.50005 7 8.50005C6.07174 8.50005 5.18151 8.13131 4.52513 7.47493C3.86875 6.81855 3.5 5.92831 3.5 5.00005ZM21.3375 21.8438C22.1765 21.3338 22.8257 20.5633 23.1861 19.6499C23.5464 18.7365 23.5981 17.7303 23.3332 16.7848C23.0684 15.8393 22.5016 15.0064 21.7192 14.413C20.9369 13.8197 19.9819 13.4985 19 13.4985C18.0181 13.4985 17.0632 13.8197 16.2808 14.413C15.4984 15.0064 14.9316 15.8393 14.6668 16.7848C14.4019 17.7303 14.4536 18.7365 14.814 19.6499C15.1743 20.5633 15.8235 21.3338 16.6625 21.8438C15.2441 22.2752 13.9752 23.0959 13 24.2126C12.025 23.0956 10.756 22.2749 9.3375 21.8438C10.1765 21.3338 10.8257 20.5633 11.1861 19.6499C11.5464 18.7365 11.5981 17.7303 11.3332 16.7848C11.0684 15.8393 10.5016 15.0064 9.71921 14.413C8.93685 13.8197 7.9819 13.4985 7 13.4985C6.0181 13.4985 5.06315 13.8197 4.28079 14.413C3.49843 15.0064 2.93161 15.8393 2.66678 16.7848C2.40194 17.7303 2.45363 18.7365 2.81395 19.6499C3.17428 20.5633 3.82347 21.3338 4.6625 21.8438C3.03812 22.3377 1.61449 23.3387 0.600002 24.7001C0.520437 24.8061 0.486274 24.9395 0.505027 25.0708C0.523781 25.202 0.593916 25.3205 0.700002 25.4001C0.806089 25.4796 0.939437 25.5138 1.07071 25.495C1.20199 25.4763 1.32044 25.4061 1.4 25.3001C2.05203 24.4307 2.89752 23.7251 3.86951 23.2391C4.8415 22.7531 5.91329 22.5001 7 22.5001C8.08672 22.5001 9.15851 22.7531 10.1305 23.2391C11.1025 23.7251 11.948 24.4307 12.6 25.3001C12.6455 25.3633 12.7054 25.4148 12.7747 25.4503C12.8441 25.4859 12.9208 25.5044 12.9988 25.5044C13.0767 25.5044 13.1534 25.4859 13.2228 25.4503C13.2921 25.4148 13.352 25.3633 13.3975 25.3001C14.0495 24.4307 14.895 23.7251 15.867 23.2391C16.839 22.7531 17.9108 22.5001 18.9975 22.5001C20.0842 22.5001 21.156 22.7531 22.128 23.2391C23.1 23.7251 23.9455 24.4307 24.5975 25.3001C24.6771 25.4061 24.7955 25.4763 24.9268 25.495C25.0581 25.5138 25.1914 25.4796 25.2975 25.4001C25.4036 25.3205 25.4737 25.202 25.4925 25.0708C25.5112 24.9395 25.4771 24.8061 25.3975 24.7001C24.384 23.3387 22.9612 22.3377 21.3375 21.8438ZM3.5 18.0001C3.5 17.3078 3.70527 16.6311 4.08986 16.0556C4.47444 15.48 5.02107 15.0314 5.66061 14.7665C6.30015 14.5016 7.00389 14.4323 7.68282 14.5673C8.36175 14.7024 8.98539 15.0357 9.47488 15.5252C9.96436 16.0147 10.2977 16.6383 10.4328 17.3172C10.5678 17.9962 10.4985 18.6999 10.2336 19.3394C9.96867 19.979 9.52007 20.5256 8.9445 20.9102C8.36893 21.2948 7.69224 21.5001 7 21.5001C6.07174 21.5001 5.18151 21.1313 4.52513 20.4749C3.86875 19.8186 3.5 18.9283 3.5 18.0001ZM15.5 18.0001C15.5 17.3078 15.7053 16.6311 16.0899 16.0556C16.4744 15.48 17.0211 15.0314 17.6606 14.7665C18.3002 14.5016 19.0039 14.4323 19.6828 14.5673C20.3618 14.7024 20.9854 15.0357 21.4749 15.5252C21.9644 16.0147 22.2977 16.6383 22.4328 17.3172C22.5678 17.9962 22.4985 18.6999 22.2336 19.3394C21.9687 19.979 21.5201 20.5256 20.9445 20.9102C20.3689 21.2948 19.6922 21.5001 19 21.5001C18.0717 21.5001 17.1815 21.1313 16.5251 20.4749C15.8687 19.8186 15.5 18.9283 15.5 18.0001Z" fill="#667185"/>
</svg>