<svg width="20" height="20" viewBox="0 0 20 20" fill="none" xmlns="http://www.w3.org/2000/svg">
<path d="M18 17.124C18.0699 17.2169 18.1125 17.3273 18.123 17.4431C18.1336 17.5588 18.1116 17.6752 18.0597 17.7791C18.0078 17.8831 17.9279 17.9705 17.829 18.0315C17.7301 18.0926 17.6162 18.1249 17.5 18.1248H2.5C2.38393 18.1248 2.27015 18.0925 2.17142 18.0314C2.07268 17.9704 1.99289 17.8831 1.94098 17.7793C1.88908 17.6755 1.8671 17.5593 1.87753 17.4437C1.88795 17.3281 1.93036 17.2176 2 17.1248C2.55343 16.3828 3.29142 15.7986 4.14063 15.4302C3.67514 15.0054 3.34898 14.4498 3.20496 13.8362C3.06094 13.2227 3.10579 12.5799 3.33362 11.9923C3.56145 11.4048 3.96161 10.8998 4.48159 10.5437C5.00157 10.1876 5.61705 9.99707 6.24727 9.99707C6.87748 9.99707 7.49297 10.1876 8.01294 10.5437C8.53292 10.8998 8.93308 11.4048 9.16091 11.9923C9.38874 12.5799 9.43359 13.2227 9.28957 13.8362C9.14555 14.4498 8.81939 15.0054 8.35391 15.4302C8.96658 15.6951 9.52333 16.0739 9.99453 16.5467C10.4657 16.0739 11.0225 15.6951 11.6352 15.4302C11.1697 15.0054 10.8435 14.4498 10.6995 13.8362C10.5555 13.2227 10.6003 12.5799 10.8281 11.9923C11.056 11.4048 11.4561 10.8998 11.9761 10.5437C12.4961 10.1876 13.1116 9.99707 13.7418 9.99707C14.372 9.99707 14.9875 10.1876 15.5075 10.5437C16.0275 10.8998 16.4276 11.4048 16.6554 11.9923C16.8833 12.5799 16.9281 13.2227 16.7841 13.8362C16.6401 14.4498 16.3139 15.0054 15.8484 15.4302C16.7016 15.7967 17.4435 16.3807 18 17.124ZM2.125 9.87478C2.19066 9.92403 2.26538 9.95986 2.34489 9.98023C2.4244 10.0006 2.50714 10.0051 2.58839 9.9935C2.66964 9.98189 2.74781 9.9544 2.81843 9.91258C2.88906 9.87076 2.95075 9.81544 3 9.74978C3.37841 9.24523 3.86909 8.83572 4.4332 8.55367C4.9973 8.27162 5.61932 8.12478 6.25 8.12478C6.88068 8.12478 7.50271 8.27162 8.06681 8.55367C8.63091 8.83572 9.12159 9.24523 9.5 9.74978C9.55822 9.8274 9.63371 9.89041 9.72049 9.9338C9.80728 9.97719 9.90297 9.99978 10 9.99978C10.097 9.99978 10.1927 9.97719 10.2795 9.9338C10.3663 9.89041 10.4418 9.8274 10.5 9.74978C10.8784 9.24523 11.3691 8.83572 11.9332 8.55367C12.4973 8.27162 13.1193 8.12478 13.75 8.12478C14.3807 8.12478 15.0027 8.27162 15.5668 8.55367C16.1309 8.83572 16.6216 9.24523 17 9.74978C17.0493 9.81544 17.111 9.87075 17.1817 9.91255C17.2524 9.95435 17.3306 9.98181 17.4119 9.99339C17.4932 10.005 17.5759 10.0004 17.6555 9.97999C17.735 9.95957 17.8097 9.92369 17.8754 9.87439C17.9411 9.82509 17.9964 9.76335 18.0382 9.69268C18.08 9.622 18.1074 9.54379 18.119 9.4625C18.1306 9.38122 18.126 9.29844 18.1056 9.21892C18.0852 9.13939 18.0493 9.06466 18 8.999C17.4466 8.25723 16.7085 7.67328 15.8594 7.30525C16.3249 6.88041 16.651 6.32475 16.795 5.71122C16.9391 5.09768 16.8942 4.45493 16.6664 3.86734C16.4386 3.27975 16.0384 2.77478 15.5184 2.4187C14.9984 2.06262 14.3829 1.87207 13.7527 1.87207C13.1225 1.87207 12.507 2.06262 11.9871 2.4187C11.4671 2.77478 11.0669 3.27975 10.8391 3.86734C10.6113 4.45493 10.5664 5.09768 10.7104 5.71122C10.8545 6.32475 11.1806 6.88041 11.6461 7.30525C11.0334 7.57007 10.4767 7.94893 10.0055 8.42166C9.53427 7.94893 8.97752 7.57007 8.36484 7.30525C8.83033 6.88041 9.15649 6.32475 9.30051 5.71122C9.44453 5.09768 9.39968 4.45493 9.17185 3.86734C8.94402 3.27975 8.54386 2.77478 8.02388 2.4187C7.5039 2.06262 6.88842 1.87207 6.2582 1.87207C5.62799 1.87207 5.0125 2.06262 4.49253 2.4187C3.97255 2.77478 3.57239 3.27975 3.34456 3.86734C3.11673 4.45493 3.07188 5.09768 3.2159 5.71122C3.35992 6.32475 3.68608 6.88041 4.15156 7.30525C3.29838 7.67197 2.55645 8.25629 2 8.99978C1.95075 9.06544 1.91492 9.14016 1.89455 9.21967C1.87418 9.29918 1.86967 9.38192 1.88128 9.46317C1.89289 9.54442 1.92039 9.62259 1.9622 9.69321C2.00402 9.76384 2.05934 9.82554 2.125 9.87478Z" fill="#5C6D66"/>
</svg>
