<svg width="20" height="20" viewBox="0 0 20 20" fill="none" xmlns="http://www.w3.org/2000/svg">
<path d="M9.15879 12.3374C9.99645 11.7798 10.6324 10.9674 10.9726 10.0203C11.3128 9.07325 11.3392 8.04185 11.0479 7.07862C10.7566 6.1154 10.1631 5.27149 9.35506 4.67169C8.54704 4.07189 7.56745 3.74805 6.56114 3.74805C5.55483 3.74805 4.57523 4.07189 3.76721 4.67169C2.95918 5.27149 2.36563 6.1154 2.07433 7.07862C1.78303 8.04185 1.80943 9.07325 2.14965 10.0203C2.48986 10.9674 3.12582 11.7798 3.96348 12.3374C2.44824 12.8959 1.15419 13.9293 0.274416 15.2835C0.228179 15.3523 0.196062 15.4295 0.179933 15.5107C0.163804 15.592 0.163984 15.6756 0.180464 15.7568C0.196944 15.838 0.229394 15.915 0.275928 15.9836C0.322462 16.0521 0.382151 16.1107 0.451528 16.1559C0.520904 16.2012 0.598582 16.2322 0.680048 16.2472C0.761513 16.2621 0.845141 16.2607 0.926069 16.2431C1.007 16.2255 1.08361 16.1919 1.15146 16.1444C1.21931 16.0969 1.27704 16.0364 1.32129 15.9664C1.88878 15.0935 2.66532 14.3763 3.58038 13.8798C4.49545 13.3833 5.52005 13.1232 6.56114 13.1232C7.60223 13.1232 8.62683 13.3833 9.54189 13.8798C10.457 14.3763 11.2335 15.0935 11.801 15.9664C11.8926 16.1026 12.0343 16.1973 12.1952 16.23C12.3561 16.2626 12.5234 16.2307 12.661 16.141C12.7985 16.0512 12.8952 15.911 12.9302 15.7506C12.9652 15.5901 12.9356 15.4224 12.8479 15.2835C11.9681 13.9293 10.674 12.8959 9.15879 12.3374ZM3.12364 8.43745C3.12364 7.75758 3.32524 7.09297 3.70296 6.52768C4.08068 5.96238 4.61754 5.52179 5.24566 5.26161C5.87378 5.00144 6.56495 4.93336 7.23176 5.066C7.89857 5.19864 8.51107 5.52603 8.99182 6.00677C9.47256 6.48751 9.79995 7.10002 9.93258 7.76683C10.0652 8.43364 9.99715 9.1248 9.73697 9.75292C9.4768 10.381 9.0362 10.9179 8.47091 11.2956C7.90561 11.6733 7.24101 11.8749 6.56114 11.8749C5.64977 11.8739 4.77603 11.5114 4.1316 10.867C3.48717 10.2226 3.12467 9.34881 3.12364 8.43745ZM19.5408 16.1484C19.402 16.2389 19.2329 16.2706 19.0707 16.2365C18.9085 16.2023 18.7665 16.1052 18.676 15.9664C18.1092 15.093 17.3327 14.3755 16.4175 13.8791C15.5022 13.3828 14.4773 13.1236 13.4361 13.1249C13.2704 13.1249 13.1114 13.0591 12.9942 12.9419C12.877 12.8247 12.8111 12.6657 12.8111 12.4999C12.8111 12.3342 12.877 12.1752 12.9942 12.058C13.1114 11.9408 13.2704 11.8749 13.4361 11.8749C13.9424 11.8745 14.4422 11.7622 14.9 11.5461C15.3578 11.3301 15.7623 11.0156 16.0844 10.6251C16.4066 10.2346 16.6385 9.77779 16.7637 9.28727C16.8888 8.79676 16.9041 8.28466 16.8084 7.78756C16.7127 7.29047 16.5084 6.82065 16.2101 6.41166C15.9117 6.00268 15.5267 5.66464 15.0826 5.42169C14.6385 5.17874 14.1462 5.03688 13.6409 5.00625C13.1356 4.97562 12.6298 5.05696 12.1596 5.24448C12.0829 5.27762 12.0004 5.29506 11.9169 5.29577C11.8333 5.29647 11.7505 5.28043 11.6733 5.24859C11.5961 5.21675 11.526 5.16975 11.4673 5.11038C11.4085 5.05101 11.3623 4.98046 11.3313 4.90291C11.3003 4.82536 11.2851 4.74238 11.2867 4.65887C11.2883 4.57536 11.3066 4.49302 11.3405 4.41671C11.3745 4.3404 11.4234 4.27167 11.4844 4.21458C11.5453 4.15749 11.6171 4.1132 11.6955 4.08432C12.7717 3.65514 13.9686 3.6397 15.0555 4.04097C16.1423 4.44224 17.0421 5.23179 17.5811 6.25731C18.1202 7.28282 18.2604 8.47164 17.9747 9.59442C17.6889 10.7172 16.9975 11.6944 16.0338 12.3374C17.549 12.8959 18.8431 13.9293 19.7229 15.2835C19.8134 15.4224 19.8451 15.5915 19.8109 15.7537C19.7768 15.9158 19.6796 16.0578 19.5408 16.1484Z" fill="#667185"/>
</svg>
