<svg width="13" height="12" viewBox="0 0 13 12" fill="none" xmlns="http://www.w3.org/2000/svg">
<path d="M12 2.5H6.70687L5 0.793128C4.90744 0.699922 4.79729 0.626017 4.67595 0.5757C4.55461 0.525383 4.42449 0.499653 4.29313 0.500004H1C0.734784 0.500004 0.48043 0.60536 0.292893 0.792897C0.105357 0.980433 0 1.23479 0 1.5V10.5388C0.000496014 10.7936 0.102015 11.038 0.282312 11.2181C0.462609 11.3983 0.70698 11.4997 0.961875 11.5H12.0556C12.306 11.4997 12.546 11.4001 12.723 11.223C12.9001 11.046 12.9997 10.806 13 10.5556V3.5C13 3.23479 12.8946 2.98043 12.7071 2.7929C12.5196 2.60536 12.2652 2.5 12 2.5ZM1 1.5H4.29313L5.29313 2.5H1V1.5ZM8 7.5H7V8.5C7 8.63261 6.94732 8.75979 6.85355 8.85356C6.75979 8.94733 6.63261 9 6.5 9C6.36739 9 6.24021 8.94733 6.14645 8.85356C6.05268 8.75979 6 8.63261 6 8.5V7.5H5C4.86739 7.5 4.74021 7.44733 4.64645 7.35356C4.55268 7.25979 4.5 7.13261 4.5 7C4.5 6.86739 4.55268 6.74022 4.64645 6.64645C4.74021 6.55268 4.86739 6.5 5 6.5H6V5.5C6 5.36739 6.05268 5.24022 6.14645 5.14645C6.24021 5.05268 6.36739 5 6.5 5C6.63261 5 6.75979 5.05268 6.85355 5.14645C6.94732 5.24022 7 5.36739 7 5.5V6.5H8C8.13261 6.5 8.25979 6.55268 8.35355 6.64645C8.44732 6.74022 8.5 6.86739 8.5 7C8.5 7.13261 8.44732 7.25979 8.35355 7.35356C8.25979 7.44733 8.13261 7.5 8 7.5Z" fill="#F9FAFB"/>
</svg>
