<svg width="20" height="20" viewBox="0 0 20 20" fill="none" xmlns="http://www.w3.org/2000/svg">
<path d="M10.0003 2.50035C8.51699 2.50035 7.06694 2.94021 5.83357 3.76433C4.6002 4.58844 3.63891 5.75978 3.07125 7.13022C2.50359 8.50067 2.35507 10.0087 2.64446 11.4635C2.93385 12.9184 3.64815 14.2548 4.69705 15.3036C5.74594 16.3525 7.08231 17.0668 8.53717 17.3562C9.99203 17.6456 11.5 17.4971 12.8705 16.9294C14.2409 16.3618 15.4123 15.4005 16.2364 14.1671C17.0605 12.9338 17.5003 11.4837 17.5003 10.0003C17.4981 8.01192 16.7072 6.10559 15.3011 4.69956C13.8951 3.29353 11.9888 2.50262 10.0003 2.50035ZM10.0003 16.2503C8.76421 16.2503 7.55584 15.8838 6.52803 15.197C5.50023 14.5103 4.69915 13.5342 4.2261 12.3921C3.75305 11.2501 3.62928 9.99341 3.87044 8.78103C4.1116 7.56865 4.70685 6.45501 5.58093 5.58093C6.45501 4.70685 7.56865 4.1116 8.78103 3.87044C9.99341 3.62928 11.2501 3.75305 12.3921 4.2261C13.5342 4.69915 14.5103 5.50023 15.197 6.52803C15.8838 7.55584 16.2503 8.76421 16.2503 10.0003C16.2485 11.6574 15.5894 13.246 14.4177 14.4177C13.246 15.5894 11.6574 16.2485 10.0003 16.2503ZM4.81753 2.31754L2.31754 4.81753C2.25947 4.8756 2.19053 4.92167 2.11466 4.95309C2.03879 4.98452 1.95747 5.00069 1.87535 5.00069C1.79323 5.00069 1.71191 4.98452 1.63604 4.95309C1.56017 4.92167 1.49123 4.8756 1.43316 4.81753C1.31588 4.70026 1.25 4.5412 1.25 4.37535C1.25 4.2095 1.31588 4.05044 1.43316 3.93316L3.93316 1.43316C3.99123 1.37509 4.06017 1.32903 4.13604 1.2976C4.21191 1.26618 4.29323 1.25 4.37535 1.25C4.45747 1.25 4.53879 1.26618 4.61466 1.2976C4.69053 1.32903 4.75947 1.37509 4.81753 1.43316C4.8756 1.49123 4.92167 1.56017 4.95309 1.63604C4.98452 1.71191 5.00069 1.79323 5.00069 1.87535C5.00069 1.95747 4.98452 2.03879 4.95309 2.11466C4.92167 2.19053 4.8756 2.25947 4.81753 2.31754ZM18.5675 4.81753C18.5095 4.87565 18.4406 4.92174 18.3647 4.9532C18.2888 4.98465 18.2075 5.00084 18.1253 5.00084C18.0432 5.00084 17.9619 4.98465 17.886 4.9532C17.8101 4.92174 17.7412 4.87565 17.6832 4.81753L15.1832 2.31754C15.0659 2.20026 15 2.0412 15 1.87535C15 1.7095 15.0659 1.55044 15.1832 1.43316C15.3004 1.31588 15.4595 1.25 15.6253 1.25C15.7912 1.25 15.9503 1.31588 16.0675 1.43316L18.5675 3.93316C18.6256 3.99121 18.6717 4.06014 18.7032 4.13601C18.7347 4.21188 18.7508 4.29321 18.7508 4.37535C18.7508 4.45748 18.7347 4.53881 18.7032 4.61469C18.6717 4.69056 18.6256 4.75949 18.5675 4.81753ZM14.3753 9.37535C14.5411 9.37535 14.7001 9.4412 14.8173 9.55841C14.9345 9.67562 15.0003 9.83459 15.0003 10.0003C15.0003 10.1661 14.9345 10.3251 14.8173 10.4423C14.7001 10.5595 14.5411 10.6253 14.3753 10.6253H10.0003C9.83459 10.6253 9.67562 10.5595 9.55841 10.4423C9.4412 10.3251 9.37535 10.1661 9.37535 10.0003V5.62535C9.37535 5.45959 9.4412 5.30062 9.55841 5.18341C9.67562 5.0662 9.83459 5.00035 10.0003 5.00035C10.1661 5.00035 10.3251 5.0662 10.4423 5.18341C10.5595 5.30062 10.6253 5.45959 10.6253 5.62535V9.37535H14.3753Z" fill="#98A2B3"/>
</svg>
