<svg width="14" height="11" viewBox="0 0 14 11" fill="none" xmlns="http://www.w3.org/2000/svg">
<path d="M7.87469 7.62336C8.56052 7.1962 9.08858 6.55729 9.37896 5.80329C9.66934 5.04929 9.70626 4.22123 9.48411 3.44439C9.26197 2.66754 8.79286 1.98418 8.14776 1.49769C7.50265 1.0112 6.71665 0.748047 5.90867 0.748047C5.10069 0.748047 4.31469 1.0112 3.66959 1.49769C3.02448 1.98418 2.55537 2.66754 2.33323 3.44439C2.11109 4.22123 2.148 5.04929 2.43839 5.80329C2.72877 6.55729 3.25682 7.1962 3.94266 7.62336C2.81336 7.99305 1.79727 8.68375 0.980235 9.65609C0.941953 9.69987 0.912783 9.75084 0.89443 9.80602C0.876077 9.8612 0.868909 9.91948 0.873345 9.97747C0.877781 10.0355 0.893733 10.092 0.920266 10.1437C0.9468 10.1955 0.983384 10.2414 1.02788 10.2788C1.07237 10.3163 1.12389 10.3445 1.17941 10.3618C1.23493 10.3791 1.29334 10.3851 1.35123 10.3796C1.40911 10.3741 1.46532 10.357 1.51655 10.3295C1.56778 10.302 1.61302 10.2646 1.64961 10.2194C2.74773 8.90906 4.26039 8.18773 5.90594 8.18773C7.55149 8.18773 9.06414 8.90906 10.1645 10.2194C10.2392 10.3083 10.3461 10.3639 10.4618 10.3739C10.5775 10.384 10.6924 10.3477 10.7813 10.273C10.8702 10.1983 10.9258 10.0913 10.9359 9.97563C10.9459 9.85994 10.9096 9.745 10.8349 9.65609C10.0173 8.68375 9.00125 7.99305 7.87469 7.62336ZM3.06219 4.46898C3.06219 3.90654 3.22897 3.35673 3.54145 2.88908C3.85392 2.42143 4.29805 2.05694 4.81768 1.8417C5.33731 1.62646 5.90909 1.57015 6.46073 1.67988C7.01236 1.7896 7.51907 2.06044 7.91677 2.45815C8.31448 2.85585 8.58532 3.36256 8.69505 3.9142C8.80477 4.46583 8.74846 5.03761 8.53322 5.55724C8.31798 6.07687 7.95349 6.521 7.48584 6.83348C7.01819 7.14595 6.46838 7.31273 5.90594 7.31273C5.152 7.31187 4.42918 7.01198 3.89606 6.47886C3.36294 5.94574 3.06306 5.22293 3.06219 4.46898ZM13.3571 6.82437L13.1023 6.67727C13.1322 6.51898 13.1322 6.35649 13.1023 6.1982L13.3571 6.05109C13.4576 5.99308 13.531 5.89751 13.561 5.78541C13.5911 5.67331 13.5754 5.55387 13.5173 5.45336C13.4593 5.35285 13.3638 5.2795 13.2517 5.24945C13.1396 5.2194 13.0201 5.23511 12.9196 5.29312L12.6642 5.44078C12.542 5.33592 12.4015 5.25453 12.2497 5.2007V4.90648C12.2497 4.79045 12.2036 4.67917 12.1215 4.59712C12.0395 4.51508 11.9282 4.46898 11.8122 4.46898C11.6962 4.46898 11.5849 4.51508 11.5028 4.59712C11.4208 4.67917 11.3747 4.79045 11.3747 4.90648V5.2007C11.2229 5.25453 11.0824 5.33592 10.9602 5.44078L10.7048 5.29312C10.655 5.2644 10.6001 5.24576 10.5431 5.23826C10.4861 5.23077 10.4282 5.23457 10.3727 5.24945C10.3172 5.26433 10.2652 5.28999 10.2196 5.32498C10.174 5.35997 10.1358 5.40359 10.107 5.45336C10.0783 5.50313 10.0597 5.55807 10.0522 5.61504C10.0447 5.67201 10.0485 5.72991 10.0634 5.78541C10.0782 5.84092 10.1039 5.89295 10.1389 5.93853C10.1739 5.98412 10.2175 6.02237 10.2673 6.05109L10.5221 6.1982C10.4922 6.35649 10.4922 6.51898 10.5221 6.67727L10.2673 6.82437C10.1668 6.88239 10.0934 6.97796 10.0634 7.09006C10.0333 7.20215 10.049 7.3216 10.107 7.42211C10.165 7.52262 10.2606 7.59597 10.3727 7.62602C10.4848 7.65607 10.6043 7.64036 10.7048 7.58234L10.9602 7.43469C11.0824 7.53955 11.2229 7.62094 11.3747 7.67476V7.96898C11.3747 8.08502 11.4208 8.1963 11.5028 8.27834C11.5849 8.36039 11.6962 8.40648 11.8122 8.40648C11.9282 8.40648 12.0395 8.36039 12.1215 8.27834C12.2036 8.1963 12.2497 8.08502 12.2497 7.96898V7.67476C12.4015 7.62094 12.542 7.53955 12.6642 7.43469L12.9196 7.58234C12.986 7.6209 13.0615 7.6411 13.1384 7.64086C13.2347 7.6409 13.3284 7.60913 13.4048 7.5505C13.4812 7.49186 13.5362 7.40964 13.5611 7.31658C13.5861 7.22352 13.5796 7.12484 13.5427 7.03584C13.5058 6.94684 13.4406 6.87251 13.3571 6.82437ZM11.3747 6.43773C11.3747 6.3512 11.4003 6.26662 11.4484 6.19467C11.4965 6.12273 11.5648 6.06665 11.6448 6.03354C11.7247 6.00042 11.8127 5.99176 11.8975 6.00864C11.9824 6.02552 12.0604 6.06719 12.1215 6.12837C12.1827 6.18956 12.2244 6.26751 12.2413 6.35238C12.2582 6.43725 12.2495 6.52521 12.2164 6.60516C12.1833 6.6851 12.1272 6.75343 12.0553 6.8015C11.9833 6.84958 11.8987 6.87523 11.8122 6.87523C11.6962 6.87523 11.5849 6.82914 11.5028 6.74709C11.4208 6.66505 11.3747 6.55377 11.3747 6.43773Z" fill="#5C6D66"/>
</svg>
