<svg width="17" height="16" viewBox="0 0 17 16" fill="none" xmlns="http://www.w3.org/2000/svg">
<path d="M16.5001 8.4996C16.5001 8.69851 16.4211 8.88927 16.2805 9.02993C16.1398 9.17058 15.9491 9.2496 15.7501 9.2496H13.2501C13.0512 9.2496 12.8605 9.17058 12.7198 9.02993C12.5792 8.88927 12.5001 8.69851 12.5001 8.4996C12.5001 8.30068 12.5792 8.10992 12.7198 7.96927C12.8605 7.82861 13.0512 7.7496 13.2501 7.7496H15.7501C15.9491 7.7496 16.1398 7.82861 16.2805 7.96927C16.4211 8.10992 16.5001 8.30068 16.5001 8.4996ZM13.0745 12.0171C13.2025 12.1694 13.2647 12.3664 13.2475 12.5646C13.2302 12.7628 13.135 12.946 12.9826 13.074C12.8303 13.2019 12.6334 13.2641 12.4352 13.2469C12.237 13.2297 12.0537 13.1344 11.9258 12.9821C11.0701 11.9633 9.56264 10.7496 7.25014 10.7496C5.44452 10.7496 3.78389 11.5421 2.57452 12.9821C2.44655 13.1344 2.26331 13.2297 2.06511 13.2469C1.86691 13.2641 1.66998 13.2019 1.51764 13.074C1.36531 12.946 1.27005 12.7628 1.25282 12.5646C1.23559 12.3664 1.2978 12.1694 1.42577 12.0171C2.2406 11.033 3.28595 10.2655 4.46889 9.78272C3.73329 9.20439 3.19626 8.41113 2.93255 7.51334C2.66884 6.61554 2.69156 5.65787 2.99754 4.77359C3.30353 3.88931 3.87757 3.12241 4.63977 2.57961C5.40197 2.03681 6.31442 1.74512 7.25014 1.74512C8.18587 1.74512 9.09832 2.03681 9.86052 2.57961C10.6227 3.12241 11.1968 3.88931 11.5027 4.77359C11.8087 5.65787 11.8315 6.61554 11.5677 7.51334C11.304 8.41113 10.767 9.20439 10.0314 9.78272C11.2144 10.2653 12.2598 11.0328 13.0745 12.0171ZM7.25014 9.2496C7.84349 9.2496 8.42351 9.07365 8.91685 8.74401C9.4102 8.41436 9.79472 7.94583 10.0218 7.39765C10.2488 6.84947 10.3083 6.24627 10.1925 5.66433C10.0767 5.08238 9.79102 4.54783 9.37146 4.12828C8.95191 3.70872 8.41736 3.423 7.83541 3.30724C7.25347 3.19149 6.65027 3.2509 6.10209 3.47796C5.55392 3.70502 5.08538 4.08954 4.75574 4.58289C4.42609 5.07623 4.25014 5.65625 4.25014 6.2496C4.25097 7.04499 4.56731 7.80757 5.12974 8.37C5.69217 8.93243 6.45475 9.24877 7.25014 9.2496Z" fill="#F9FAFB"/>
</svg>
