<svg width="13" height="13" viewBox="0 0 13 13" fill="none" xmlns="http://www.w3.org/2000/svg">
<path d="M12.7075 3.58547L9.91438 0.792974C9.82152 0.700091 9.71127 0.626411 9.58993 0.576142C9.46859 0.525873 9.33853 0.5 9.20719 0.5C9.07585 0.5 8.9458 0.525873 8.82446 0.576142C8.70312 0.626411 8.59287 0.700091 8.5 0.792974L0.79313 8.49985C0.699867 8.59237 0.625926 8.70251 0.575604 8.82386C0.525283 8.94521 0.499585 9.07535 0.500005 9.20672V11.9998C0.500005 12.2651 0.605362 12.5194 0.792898 12.707C0.980435 12.8945 1.23479 12.9998 1.50001 12.9998H12C12.1326 12.9998 12.2598 12.9472 12.3536 12.8534C12.4473 12.7596 12.5 12.6325 12.5 12.4998C12.5 12.3672 12.4473 12.2401 12.3536 12.1463C12.2598 12.0525 12.1326 11.9998 12 11.9998H5.70751L12.7075 4.99985C12.8004 4.90699 12.8741 4.79674 12.9243 4.6754C12.9746 4.55406 13.0005 4.424 13.0005 4.29266C13.0005 4.16132 12.9746 4.03127 12.9243 3.90992C12.8741 3.78858 12.8004 3.67834 12.7075 3.58547ZM4.29313 11.9998H1.50001V9.20672L7.00001 3.70672L9.79313 6.49985L4.29313 11.9998ZM10.5 5.79297L7.70751 2.99985L9.20751 1.49985L12 4.29297L10.5 5.79297Z" fill="#344054"/>
</svg>
