<svg width="15" height="11" viewBox="0 0 15 11" fill="none" xmlns="http://www.w3.org/2000/svg">
<path d="M14.9998 6.49957C14.9998 6.63218 14.9472 6.75936 14.8534 6.85312C14.7596 6.94689 14.6324 6.99957 14.4998 6.99957H11.4998C11.3672 6.99957 11.2401 6.94689 11.1463 6.85312C11.0525 6.75936 10.9998 6.63218 10.9998 6.49957C10.9998 6.36696 11.0525 6.23978 11.1463 6.14602C11.2401 6.05225 11.3672 5.99957 11.4998 5.99957H14.4998C14.6324 5.99957 14.7596 6.05225 14.8534 6.14602C14.9472 6.23978 14.9998 6.36696 14.9998 6.49957ZM11.383 10.1777C11.4683 10.2793 11.5098 10.4107 11.4983 10.5429C11.4869 10.6751 11.4233 10.7973 11.3217 10.8827C11.2201 10.9681 11.0887 11.0096 10.9565 10.9981C10.8243 10.9866 10.7021 10.9231 10.6167 10.8214C9.35921 9.32394 7.63046 8.49957 5.74984 8.49957C3.86921 8.49957 2.14046 9.32394 0.882963 10.8214C0.797596 10.923 0.675394 10.9864 0.54324 10.9979C0.411085 11.0093 0.279803 10.9677 0.178275 10.8824C0.076747 10.797 0.0132889 10.6748 0.00186092 10.5427C-0.00956708 10.4105 0.0319711 10.2792 0.117338 10.1777C1.05109 9.06645 2.21234 8.27707 3.50296 7.85457C2.71915 7.36639 2.11566 6.6362 1.7838 5.77449C1.45193 4.91278 1.40974 3.96643 1.66362 3.0786C1.91749 2.19078 2.45362 1.4098 3.19088 0.853806C3.92814 0.297815 4.82643 -0.00292969 5.74984 -0.00292969C6.67325 -0.00292969 7.57153 0.297815 8.30879 0.853806C9.04606 1.4098 9.58218 2.19078 9.83606 3.0786C10.0899 3.96643 10.0477 4.91278 9.71588 5.77449C9.38401 6.6362 8.78052 7.36639 7.99671 7.85457C9.28734 8.27707 10.4486 9.06645 11.383 10.1777ZM5.74984 7.49957C6.39263 7.49957 7.02098 7.30896 7.55544 6.95185C8.0899 6.59473 8.50646 6.08715 8.75245 5.49329C8.99843 4.89943 9.06279 4.24596 8.93739 3.61553C8.81199 2.98509 8.50246 2.40599 8.04793 1.95147C7.59341 1.49695 7.01432 1.18742 6.38388 1.06202C5.75344 0.936616 5.09998 1.00098 4.50612 1.24696C3.91226 1.49295 3.40468 1.90951 3.04756 2.44397C2.69045 2.97843 2.49984 3.60678 2.49984 4.24957C2.50083 5.11122 2.84356 5.93729 3.45284 6.54657C4.06211 7.15585 4.88819 7.49858 5.74984 7.49957Z" fill="#9E0A05"/>
</svg>
