<svg width="16" height="16" viewBox="0 0 16 16" fill="none" xmlns="http://www.w3.org/2000/svg">
<path d="M13.75 7.00059V13.0006C13.75 13.3321 13.6183 13.6501 13.3839 13.8845C13.1495 14.1189 12.8315 14.2506 12.5 14.2506H3.5C3.16848 14.2506 2.85054 14.1189 2.61612 13.8845C2.3817 13.6501 2.25 13.3321 2.25 13.0006V7.00059C2.25 6.66907 2.3817 6.35113 2.61612 6.11671C2.85054 5.88229 3.16848 5.75059 3.5 5.75059H5C5.19891 5.75059 5.38968 5.82961 5.53033 5.97026C5.67098 6.11091 5.75 6.30168 5.75 6.50059C5.75 6.6995 5.67098 6.89027 5.53033 7.03092C5.38968 7.17157 5.19891 7.25059 5 7.25059H3.75V12.7506H12.25V7.25059H11C10.8011 7.25059 10.6103 7.17157 10.4697 7.03092C10.329 6.89027 10.25 6.6995 10.25 6.50059C10.25 6.30168 10.329 6.11091 10.4697 5.97026C10.6103 5.82961 10.8011 5.75059 11 5.75059H12.5C12.8315 5.75059 13.1495 5.88229 13.3839 6.11671C13.6183 6.35113 13.75 6.66907 13.75 7.00059ZM6.03062 4.53122L7.25 3.31309V8.50059C7.25 8.6995 7.32902 8.89027 7.46967 9.03092C7.61032 9.17157 7.80109 9.25059 8 9.25059C8.19891 9.25059 8.38968 9.17157 8.53033 9.03092C8.67098 8.89027 8.75 8.6995 8.75 8.50059V3.31309L9.96937 4.53309C10.0391 4.60286 10.122 4.6582 10.2131 4.69595C10.3043 4.73371 10.402 4.75314 10.5006 4.75314C10.5993 4.75314 10.697 4.73371 10.7881 4.69595C10.8793 4.6582 10.9621 4.60286 11.0319 4.53309C11.1016 4.46333 11.157 4.3805 11.1947 4.28935C11.2325 4.1982 11.2519 4.1005 11.2519 4.00184C11.2519 3.90318 11.2325 3.80548 11.1947 3.71433C11.157 3.62318 11.1016 3.54036 11.0319 3.47059L8.53187 0.970591C8.4622 0.900671 8.3794 0.845194 8.28824 0.80734C8.19707 0.769486 8.09934 0.75 8.00062 0.75C7.90191 0.75 7.80417 0.769486 7.71301 0.80734C7.62185 0.845194 7.53905 0.900671 7.46938 0.970591L4.96938 3.47059C4.89961 3.54036 4.84427 3.62318 4.80651 3.71433C4.76876 3.80548 4.74932 3.90318 4.74932 4.00184C4.74932 4.2011 4.82848 4.39219 4.96938 4.53309C5.11027 4.67399 5.30137 4.75314 5.50063 4.75314C5.69988 4.75314 5.89098 4.67399 6.03188 4.53309L6.03062 4.53122Z" fill="#F9FAFB"/>
</svg>
