<svg width="16" height="12" viewBox="0 0 16 12" fill="none" xmlns="http://www.w3.org/2000/svg">
<path d="M15.7503 6.00042C15.754 7.24543 15.3499 8.45741 14.5997 9.45104C14.4788 9.60596 14.3018 9.70721 14.107 9.73301C13.9121 9.7588 13.7149 9.70708 13.5578 9.58897C13.4007 9.47086 13.2963 9.2958 13.267 9.10145C13.2376 8.90711 13.2857 8.70902 13.401 8.54979C13.8049 8.011 14.0749 7.38395 14.189 6.7203C14.303 6.05666 14.2577 5.37542 14.0568 4.73272C13.8559 4.09001 13.5052 3.50424 13.0335 3.02366C12.5619 2.54309 11.9827 2.18146 11.3439 1.96859C10.7051 1.75571 10.0248 1.69768 9.35914 1.79927C8.69348 1.90086 8.06149 2.15917 7.51523 2.55291C6.96898 2.94665 6.5241 3.46455 6.21725 4.06394C5.9104 4.66333 5.75037 5.32705 5.75034 6.00042C5.75034 6.19933 5.67132 6.39009 5.53067 6.53075C5.39002 6.6714 5.19925 6.75042 5.00034 6.75042C4.80142 6.75042 4.61066 6.6714 4.47001 6.53075C4.32935 6.39009 4.25034 6.19933 4.25034 6.00042C4.24998 5.57999 4.29588 5.1608 4.38721 4.75042C3.65787 4.76542 2.96435 5.06954 2.45924 5.59587C1.95412 6.1222 1.67877 6.82763 1.69377 7.55698C1.70878 8.28632 2.01289 8.97984 2.53923 9.48496C3.06556 9.99007 3.77099 10.2654 4.50034 10.2504H6.00034C6.19925 10.2504 6.39002 10.3294 6.53067 10.4701C6.67132 10.6107 6.75034 10.8015 6.75034 11.0004C6.75034 11.1993 6.67132 11.3901 6.53067 11.5307C6.39002 11.6714 6.19925 11.7504 6.00034 11.7504H4.50034C3.92333 11.7511 3.35223 11.6343 2.82183 11.4072C2.29143 11.18 1.81284 10.8472 1.41524 10.429C1.01763 10.0109 0.709334 9.51618 0.509134 8.97502C0.308935 8.43386 0.221026 7.8576 0.250767 7.28136C0.280507 6.70513 0.427272 6.14098 0.682119 5.62331C0.936966 5.10564 1.29456 4.64528 1.7331 4.27029C2.17164 3.8953 2.68194 3.61354 3.23291 3.44218C3.78388 3.27081 4.36397 3.21344 4.93784 3.27354C5.54495 2.14626 6.51094 1.25385 7.6827 0.737776C8.85445 0.221699 10.1649 0.111476 11.4064 0.424577C12.6479 0.737679 13.7494 1.45619 14.5363 2.46623C15.3232 3.47627 15.7504 4.72004 15.7503 6.00042ZM10.031 5.46979C9.96128 5.39987 9.87849 5.34439 9.78733 5.30654C9.69616 5.26869 9.59842 5.2492 9.49971 5.2492C9.401 5.2492 9.30326 5.26869 9.2121 5.30654C9.12093 5.34439 9.03814 5.39987 8.96846 5.46979L6.96846 7.46979C6.8987 7.53956 6.84336 7.62238 6.8056 7.71353C6.76784 7.80468 6.74841 7.90238 6.74841 8.00104C6.74841 8.0997 6.76784 8.1974 6.8056 8.28855C6.84336 8.3797 6.8987 8.46253 6.96846 8.53229C7.03823 8.60206 7.12105 8.6574 7.2122 8.69515C7.30335 8.73291 7.40105 8.75234 7.49971 8.75234C7.59837 8.75234 7.69607 8.73291 7.78722 8.69515C7.87837 8.6574 7.9612 8.60206 8.03096 8.53229L8.75034 7.81292V11.0004C8.75034 11.1993 8.82935 11.3901 8.97001 11.5307C9.11066 11.6714 9.30142 11.7504 9.50034 11.7504C9.69925 11.7504 9.89001 11.6714 10.0307 11.5307C10.1713 11.3901 10.2503 11.1993 10.2503 11.0004V7.81292L10.9697 8.53292C11.1106 8.67381 11.3017 8.75297 11.501 8.75297C11.7002 8.75297 11.8913 8.67381 12.0322 8.53292C12.1731 8.39202 12.2523 8.20092 12.2523 8.00167C12.2523 7.80241 12.1731 7.61131 12.0322 7.47042L10.031 5.46979Z" fill="#344054"/>
</svg>
